<?xml version="1.0" encoding="UTF-8" standalone="no"?>
<svg
   xmlns:dc="http://purl.org/dc/elements/1.1/"
   xmlns:cc="http://creativecommons.org/ns#"
   xmlns:rdf="http://www.w3.org/1999/02/22-rdf-syntax-ns#"
   xmlns:svg="http://www.w3.org/2000/svg"
   xmlns="http://www.w3.org/2000/svg"
   xmlns:sodipodi="http://sodipodi.sourceforge.net/DTD/sodipodi-0.dtd"
   xmlns:inkscape="http://www.inkscape.org/namespaces/inkscape"
   enable-background="new 0 0 24 24"
   height="24px"
   id="Layer_1"
   version="1.1"
   viewBox="0 0 24 24"
   width="24px"
   xml:space="preserve"
   inkscape:version="0.91 r13725"
   sodipodi:docname="1476659981_Untitled-2-02.svg"><metadata
     id="metadata9"><rdf:RDF><cc:Work
         rdf:about=""><dc:format>image/svg+xml</dc:format><dc:type
           rdf:resource="http://purl.org/dc/dcmitype/StillImage" /><dc:title /></cc:Work></rdf:RDF></metadata><defs
     id="defs7" /><sodipodi:namedview
     pagecolor="#ffffff"
     bordercolor="#666666"
     borderopacity="1"
     objecttolerance="10"
     gridtolerance="10"
     guidetolerance="10"
     inkscape:pageopacity="0"
     inkscape:pageshadow="2"
     inkscape:window-width="1366"
     inkscape:window-height="704"
     id="namedview5"
     showgrid="false"
     inkscape:zoom="9.8333333"
     inkscape:cx="-24"
     inkscape:cy="11.79661"
     inkscape:window-x="0"
     inkscape:window-y="27"
     inkscape:window-maximized="1"
     inkscape:current-layer="Layer_1" /><path
     d="M23.821,12.264L12.575,0.636C12.416,0.473,12.208,0.391,12,0.391s-0.416,0.082-0.575,0.246l-2.312,2.39V1.282h-3.72v5.591  l-5.214,5.391c-0.316,0.328-0.203,0.596,0.251,0.596h3.308v9.096c0,0.91,0.744,1.654,1.654,1.654h4.539v-6.615h4.137l-0.015,6.615  h4.57c0.909,0,1.654-0.744,1.654-1.654V12.86h3.291C24.023,12.86,24.137,12.592,23.821,12.264z"
     id="path3" /><path
     style="opacity:0.6;fill:#b8d734;fill-opacity:1;stroke:none;stroke-width:3;stroke-miterlimit:4;stroke-dasharray:none;stroke-dashoffset:0;stroke-opacity:1"
     d="M 4.6740905,23.344068 C 4.3426112,23.176913 4.1586807,22.992982 3.9915254,22.661503 3.764068,22.21044 3.7627119,22.179853 3.7627119,17.500486 l 0,-4.707266 -1.8305085,0 c -1.68351379,0 -1.83050848,-0.01446 -1.83050848,-0.180023 0,-0.09901 1.18926638,-1.414691 2.64281418,-2.9237289 l 2.6428142,-2.7437054 0.00125,-2.8220339 0.00125,-2.8220339 1.8305085,0 1.8305085,0 0,0.8644068 c 0,0.4754237 0.036062,0.8644068 0.080138,0.8644068 0.044076,0 0.6216838,-0.5743928 1.2835737,-1.2764284 1.178757,-1.25025345 1.211607,-1.27579964 1.601995,-1.24576276 0.382103,0.0293995 0.635639,0.27600172 6.140156,5.97224266 3.318652,3.4342419 5.741595,6.019876 5.741595,6.127119 0,0.172709 -0.126401,0.185541 -1.827662,0.185541 l -1.827662,0 -0.02827,4.855933 -0.02827,4.855932 -0.237378,0.332811 c -0.4849,0.679844 -0.741449,0.734985 -3.419588,0.734985 l -2.393882,0 0,-3.305084 0,-3.305085 -2.135593,0 -2.1355933,0 0,3.305085 0,3.305084 -2.3682824,0 c -2.2537551,0 -2.3902253,-0.01106 -2.8220339,-0.228813 z"
     id="path3337"
     inkscape:connector-curvature="0"
     inkscape:export-xdpi="90.757401"
     inkscape:export-ydpi="90.757401" /></svg>