<?xml version="1.0" encoding="UTF-8" standalone="no"?>
<svg xmlns:rdf="http://www.w3.org/1999/02/22-rdf-syntax-ns#" xmlns="http://www.w3.org/2000/svg" version="1.1" xml:space="preserve" height="24px" viewBox="0 0 24 24" width="24px" enable-background="new 0 0 24 24" xmlns:cc="http://creativecommons.org/ns#" xmlns:dc="http://purl.org/dc/elements/1.1/"><path d="m23.821 12.264l-11.246-11.628c-0.159-0.163-0.367-0.245-0.575-0.245s-0.416 0.082-0.575 0.246l-2.312 2.39v-1.745h-3.72v5.591l-5.214 5.391c-0.316 0.328-0.203 0.596 0.251 0.596h3.308v9.096c0 0.91 0.744 1.654 1.654 1.654h4.539v-6.615h4.137l-0.015 6.615h4.57c0.909 0 1.654-0.744 1.654-1.654v-9.096h3.291c0.455 0 0.569-0.268 0.253-0.596z"/><path opacity=".6" d="m4.6741 23.344c-0.3315-0.167-0.5154-0.351-0.6826-0.682-0.2274-0.452-0.2288-0.482-0.2288-5.162v-4.7073h-1.8305c-1.6835 0-1.8305-0.01446-1.8305-0.18002 0-0.09901 1.1893-1.4147 2.6428-2.9237l2.6428-2.7437 0.00125-2.822 0.00125-2.822h1.8305 1.8305v0.86441c0 0.47542 0.036062 0.86441 0.080138 0.86441s0.62168-0.57439 1.2836-1.2764c1.1788-1.2503 1.2116-1.2758 1.602-1.2458 0.3821 0.0294 0.63564 0.276 6.1402 5.9722 3.3187 3.4342 5.7416 6.0199 5.7416 6.1271 0 0.17271-0.1264 0.18554-1.8277 0.18554h-1.8277l-0.02827 4.8559-0.02827 4.8559-0.23738 0.33281c-0.4849 0.67984-0.74145 0.73498-3.4196 0.73498h-2.3939v-3.3051-3.3051h-2.1356-2.1356v3.3051 3.3051h-2.3683c-2.2538 0-2.3902-0.01106-2.822-0.22881z" fill="#0f0"/></svg>
